<?xml version="1.0" encoding="UTF-8" standalone="no"?>
<svg
   xmlns:dc="http://purl.org/dc/elements/1.1/"
   xmlns:cc="http://creativecommons.org/ns#"
   xmlns:rdf="http://www.w3.org/1999/02/22-rdf-syntax-ns#"
   xmlns:svg="http://www.w3.org/2000/svg"
   xmlns="http://www.w3.org/2000/svg"
   xmlns:sodipodi="http://sodipodi.sourceforge.net/DTD/sodipodi-0.dtd"
   xmlns:inkscape="http://www.inkscape.org/namespaces/inkscape"
   inkscape:export-ydpi="96"
   inkscape:export-xdpi="96"
   inkscape:export-filename="C:\Users\tgourdel\Documents\metadata-component\src\main\resources\icons\metadata_icon32.png"
   height="16"
   width="16"
   viewBox="0 0 16 16"
   version="1.1"
   id="svg849"
   sodipodi:docname="Metadata.svg"
   inkscape:version="1.0 (4035a4fb49, 2020-05-01)">
  <metadata
     id="metadata855">
    <rdf:RDF>
      <cc:Work
         rdf:about="">
        <dc:format>image/svg+xml</dc:format>
        <dc:type
           rdf:resource="http://purl.org/dc/dcmitype/StillImage" />
        <dc:title></dc:title>
      </cc:Work>
    </rdf:RDF>
  </metadata>
  <defs
     id="defs853" />
  <sodipodi:namedview
     fit-margin-bottom="0"
     fit-margin-right="0"
     fit-margin-left="0"
     fit-margin-top="0"
     inkscape:document-rotation="0"
     pagecolor="#ffffff"
     bordercolor="#666666"
     borderopacity="1"
     objecttolerance="10"
     gridtolerance="10"
     guidetolerance="10"
     inkscape:pageopacity="0"
     inkscape:pageshadow="2"
     inkscape:window-width="1680"
     inkscape:window-height="987"
     id="namedview851"
     showgrid="false"
     inkscape:zoom="26.5625"
     inkscape:cx="5.4441583"
     inkscape:cy="13.757489"
     inkscape:window-x="1912"
     inkscape:window-y="-8"
     inkscape:window-maximized="1"
     inkscape:current-layer="svg849" />
  <g
     transform="translate(0.06481962,0.06264706)"
     id="g847"
     style="fill:#5da288;fill-opacity:1">
    <path
       class="ti-foreground"
       d="m 1.5163529,2.9353529 c 1.097,-0.186 2.138,-0.526 3.102,-0.97 1.063,-0.506 2.048,-1.13399996 2.923,-1.85599996 0.244,-0.196 0.599,-0.196 0.842,0 0.875,0.722 1.8610001,1.34999996 2.9240001,1.85599996 0.964,0.444 2.005,0.784 3.102,0.97 0.31,0.031 0.553,0.278 0.553,0.588 0,3.054 -0.432,5.405 -1.484,7.3760001 -1.052,1.98 -2.713,3.528 -5.1610001,4.962 -0.211,0.134 -0.499,0.134 -0.709,0 -2.448,-1.434 -4.109,-2.982 -5.161,-4.962 -1.053,-1.9710001 -1.48499998,-4.3220001 -1.48499998,-7.3760001 0,-0.31 0.24399998,-0.557 0.55399998,-0.588 Z"
       id="path845"
       style="fill:#5da288;fill-opacity:1" />
  </g>
</svg>
